# Blender v2.74 (sub 0) OBJ File: ''
# www.blender.org
mtllib asteroid.mtl
o default_mesh
v -0.047332 0.019473 0.049984
v -0.037901 0.070813 0.031313
v 0.008401 0.023630 0.023061
v -0.019744 0.009498 0.092376
v -0.047557 0.043715 0.094246
v -0.010393 0.003915 0.062431
v 0.037538 0.010672 0.050198
v 0.042912 0.064233 0.040651
v 0.048148 0.043479 0.082250
v 0.005040 0.077328 0.027712
v 0.027983 0.011832 0.095197
v 0.020578 0.089109 0.084852
v 0.009798 0.066568 0.120268
v -0.034785 0.076816 0.090165
v 0.001616 0.023304 0.115235
vt 0.071429 0.285714
vt 0.000000 0.285714
vt 0.000000 0.142857
vt 0.142857 0.285714
vt 0.071429 0.142857
vt 0.214286 0.285714
vt 0.142857 0.142857
vt 0.285714 0.285714
vt 0.214286 0.142857
vt 0.357143 0.285714
vt 0.285714 0.142857
vt 0.428571 0.285714
vt 0.357143 0.142857
vt 0.500000 0.285714
vt 0.428571 0.142857
vt 0.571429 0.285714
vt 0.500000 0.142857
vt 0.642857 0.285714
vt 0.571429 0.142857
vt 0.714286 0.285714
vt 0.642857 0.142857
vt 0.785714 0.285714
vt 0.714286 0.142857
vt 0.857143 0.285714
vt 0.785714 0.142857
vt 0.928572 0.285714
vt 0.857143 0.142857
vt 1.000000 0.285714
vt 0.928572 0.142857
vt 0.071429 0.428571
vt 0.000000 0.428571
vt 0.142857 0.428571
vt 0.214286 0.428571
vt 0.285714 0.428571
vt 0.357143 0.428571
vt 0.428571 0.428571
vt 0.500000 0.428571
vt 0.571429 0.428571
vt 0.642857 0.428571
vt 0.714286 0.428571
vt 0.785714 0.428571
vt 0.857143 0.428571
vn -0.406800 -0.245300 -0.880000
vn -0.724000 -0.606500 0.328500
vn 0.013400 -0.896600 -0.442600
vn 0.619600 -0.197600 -0.759600
vn -0.183000 -0.841300 -0.508600
vn 0.973400 -0.131200 -0.187900
vn 0.353200 0.102600 -0.929900
vn -0.400700 -0.915100 0.045500
vn 0.036500 -0.980300 0.194200
vn 0.399400 0.870400 -0.288000
vn -0.985000 0.149400 -0.086800
vn -0.095300 0.080000 -0.992200
vn 0.861400 -0.469100 0.195000
vn -0.488900 0.290100 0.822700
vn 0.753200 0.426500 0.500700
vn -0.198900 0.972800 -0.118900
vn -0.190800 0.975000 -0.113700
vn -0.156900 0.983300 -0.092000
vn -0.403000 -0.030200 0.914700
vn -0.932400 0.361300 0.012500
vn 0.850500 0.505600 0.145200
vn 0.012000 -0.860900 0.508700
vn -0.227200 0.964200 -0.137000
vn 0.662000 -0.119000 0.740000
vn -0.141600 0.854100 0.500500
vn -0.501800 -0.448300 0.739700
vn 0.153900 -0.986400 0.058100
vn 0.537400 -0.197000 0.820000
usemtl defaultMat
s 1
f 1/1/1 2/2/1 3/3/1
f 4/4/2 5/1/2 1/5/2
f 6/6/3 3/4/3 7/7/3
f 3/8/4 8/6/4 7/9/4
f 1/10/5 3/8/5 6/11/5
f 7/12/6 8/10/6 9/13/6
f 10/14/7 8/12/7 3/15/7
f 4/16/8 1/14/8 6/17/8
f 11/18/9 4/16/9 6/19/9
f 10/20/10 12/18/10 8/21/10
f 5/22/11 2/20/11 1/23/11
f 2/24/12 10/22/12 3/25/12
f 7/26/13 9/24/13 11/27/13
f 13/28/14 14/26/14 5/29/14
f 9/30/15 12/31/15 13/2/15
f 14/32/16 10/30/17 2/1/18
f 15/33/19 13/32/19 5/4/19
f 5/34/20 14/33/20 2/6/20
f 8/35/21 12/34/21 9/8/21
f 11/36/22 15/35/22 4/10/22
f 12/37/23 10/36/17 14/12/16
f 9/38/24 13/37/24 11/14/24
f 13/39/25 12/38/25 14/16/25
f 15/40/26 5/39/26 4/18/26
f 7/41/27 11/40/27 6/20/27
f 11/42/28 13/41/28 15/22/28
